HIERARCHY
ROOT Hips
{
	OFFSET -3.958830 18.904000 13.208200
	CHANNELS 6 Xposition Yposition Zposition Zrotation Yrotation Xrotation 
	JOINT LHipJoint
	{
		OFFSET 0.000000 0.000000 0.000000
		CHANNELS 3 Zrotation Yrotation Xrotation
		JOINT LeftUpLeg
		{
			OFFSET 1.800000 -1.400000 0.085000
			CHANNELS 3 Zrotation Yrotation Xrotation
			JOINT LeftLeg
			{
				OFFSET 2.215000 -6.000000 0.000000
				CHANNELS 3 Zrotation Yrotation Xrotation
				JOINT LeftFoot
				{
					OFFSET 2.500000 -6.900000 0.000000
					CHANNELS 3 Zrotation Yrotation Xrotation
					JOINT LeftToeBase
					{
						OFFSET 0.200000 -0.500000 1.950000
						CHANNELS 3 Zrotation Yrotation Xrotation
						End Site
						{
							OFFSET 0.000000 0.000000 0.000000
						}
					}
				}
			}
		}
	}
	JOINT RHipJoint
	{
		OFFSET 0.000000 0.000000 0.000000
		CHANNELS 3 Zrotation Yrotation Xrotation
		JOINT RightUpLeg
		{
			OFFSET -1.800000 -1.400000 0.085000
			CHANNELS 3 Zrotation Yrotation Xrotation
			JOINT RightLeg
			{
				OFFSET -2.215000 -6.000000 0.000000
				CHANNELS 3 Zrotation Yrotation Xrotation
				JOINT RightFoot
				{
					OFFSET -2.500000 -6.900000 0.000000
					CHANNELS 3 Zrotation Yrotation Xrotation
					JOINT RightToeBase
					{
						OFFSET -0.200000 -0.500000 1.950000
						CHANNELS 3 Zrotation Yrotation Xrotation
						End Site
						{
							OFFSET 0.000000 0.000000 0.000000
						}
					}
				}
			}
		}
	}
	JOINT LowerBack
	{
		OFFSET 0.000000 0.000000 0.000000
		CHANNELS 3 Zrotation Yrotation Xrotation
		JOINT Spine
		{
			OFFSET -0.087000 1.940000 -0.288900
			CHANNELS 3 Zrotation Yrotation Xrotation
			JOINT Spine1
			{
				OFFSET 0.000000 1.950000 0.060000
				CHANNELS 3 Zrotation Yrotation Xrotation
				JOINT Neck
				{
					OFFSET 0.000000 0.000000 0.000000
					CHANNELS 3 Zrotation Yrotation Xrotation
					JOINT Neck1
					{
						OFFSET 0.000000 1.600000 0.340000
						CHANNELS 3 Zrotation Yrotation Xrotation
						JOINT Head
						{
							OFFSET 0.000000 1.667000 -0.240000
							CHANNELS 3 Zrotation Yrotation Xrotation
							End Site
							{
								OFFSET 0.000000 0.000000 0.000000
							}
						}
					}
				}
				JOINT LeftShoulder
				{
					OFFSET 0.000000 0.000000 0.000000
					CHANNELS 3 Zrotation Yrotation Xrotation
					JOINT LeftArm
					{
						OFFSET 2.700000 1.550000 -0.730000
						CHANNELS 3 Zrotation Yrotation Xrotation
						JOINT LeftForeArm
						{
							OFFSET 5.450000 0.000000 0.000000
							CHANNELS 3 Zrotation Yrotation Xrotation
							JOINT LeftHand
							{
								OFFSET 3.450000 0.000000 0.000000
								CHANNELS 3 Zrotation Yrotation Xrotation
								JOINT LeftHandIndex1
								{
									OFFSET 0.750000 0.000000 0.000000
									CHANNELS 3 Zrotation Yrotation Xrotation
									End Site
									{
										OFFSET 0.000000 0.000000 0.000000
									}
								}
							}
						}
					}
				}
				JOINT RightShoulder
				{
					OFFSET 0.000000 0.000000 0.000000
					CHANNELS 3 Zrotation Yrotation Xrotation
					JOINT RightArm
					{
						OFFSET -2.700000 1.550000 -0.730000
						CHANNELS 3 Zrotation Yrotation Xrotation
						JOINT RightForeArm
						{
							OFFSET -5.450000 0.000000 0.000000
							CHANNELS 3 Zrotation Yrotation Xrotation
							JOINT RightHand
							{
								OFFSET -3.450000 0.000000 0.000000
								CHANNELS 3 Zrotation Yrotation Xrotation
								JOINT RightHandIndex1
								{
									OFFSET -0.750000 0.000000 0.000000
									CHANNELS 3 Zrotation Yrotation Xrotation
									End Site
									{
										OFFSET 0.000000 0.000000 0.000000
									}
								}
							}
						}
					}
				}
			}
		}
	}
}
MOTION
Frames: 4
Frame Time: 0.016667
-0.571150 16.646160 -2.975820 -24.466770 -59.219092 20.309189 -15.643661 11.676676 4.644765 11.042724 -4.218459 -39.721185 -18.045867 11.455932 25.235567 0.000955 6.338872 2.122559 0.487990 0.562340 0.237760 18.135462 -9.335862 3.260980 10.883697 6.629044 -9.297333 7.146850 -13.340943 58.894842 -1.799424 -9.641965 1.197859 0.410660 0.091990 0.062440 -3.021432 -2.452564 -8.403761 -7.640561 4.237859 28.145116 -4.525493 5.172659 4.989373 0.372970 -5.548163 -6.737911 -10.154464 11.430050 26.014024 2.985340 9.327420 -18.211700 -10.052981 6.856850 -0.131899 -21.355553 -0.897609 -3.174383 137.103042 -34.589861 -83.962062 -3.735232 3.126417 0.253980 0.027070 0.105480 0.198570 8.872175 0.011717 3.186132 19.940109 -3.706031 -7.231726 -176.552938 74.794628 176.637405 1.911907 -2.088839 -0.088930 0.264690 -0.145660 -0.066320 
-0.647390 16.535520 -3.018930 -26.597679 -58.141047 20.625403 -15.632849 11.470072 4.314572 10.486998 -4.408148 -39.914777 -15.081562 10.668086 26.021867 -0.092900 5.981949 2.235218 0.507740 0.582000 0.245550 18.216424 -8.729026 3.927109 10.730073 11.587677 -16.686507 12.461264 -20.942232 70.989558 -2.532423 -12.421107 0.424517 0.422870 0.071520 0.054730 -3.167456 -2.664783 -8.742917 -7.090174 3.557535 32.335925 -5.134573 4.200279 4.182494 0.214166 -6.438132 -6.933390 -11.871555 11.623488 25.408929 3.276820 8.821770 -19.158530 -11.553104 4.679834 -0.513693 -17.828709 -0.476077 -5.399958 132.447997 -34.372316 -77.006554 -3.707879 3.052966 0.274850 -0.001920 0.117330 0.192390 10.689839 2.407414 3.739540 15.451127 -4.460168 -7.576994 -163.036852 74.599609 -166.977022 2.009711 -2.119643 -0.084820 0.274330 -0.141880 -0.068550 
-0.724450 16.417610 -3.056210 -26.736533 -56.585893 18.787796 -15.693167 11.131839 4.221193 10.932338 -4.992890 -40.505850 -14.618830 11.589960 29.543647 -0.066338 6.580166 2.010592 0.509420 0.551730 0.271720 18.227800 -8.062485 4.475251 7.767057 15.413737 -24.142545 19.005923 -30.828379 78.901755 -3.246061 -15.085005 -0.242746 0.421970 0.042040 0.050930 -3.263184 -2.947277 -9.094961 -7.258417 2.930573 36.962548 -5.362865 3.162067 3.825789 0.244631 -7.185739 -7.190096 -13.413945 11.366010 25.056096 2.727580 8.119080 -20.653370 -12.551276 2.858993 -0.703778 -15.549106 -0.544502 -6.939593 127.769509 -36.272839 -74.004737 -3.695286 2.942017 0.334770 -0.035800 0.127210 0.158600 11.666008 4.348793 4.273618 11.269704 -5.140094 -7.859446 -151.637994 73.414883 -152.760741 2.087568 -2.051894 -0.110590 0.289540 -0.111190 -0.103610 
-0.800790 16.313150 -3.074400 -26.528096 -55.607274 16.349564 -15.740094 10.846693 4.210568 11.657359 -5.443395 -41.135101 -13.900208 13.107254 34.753466 0.105710 7.502248 1.685782 0.508280 0.559490 0.271970 18.224685 -7.606823 4.844209 4.802154 17.749761 -30.165199 22.396275 -38.319349 84.669372 -3.754446 -16.977105 -0.644016 0.413310 0.022510 0.054020 -3.393108 -3.029832 -9.352668 -7.733266 2.320174 41.265145 -5.886638 2.013330 3.255011 0.406717 -7.679575 -7.518792 -14.458471 11.630009 24.870411 1.959320 8.111010 -21.075400 -14.036969 0.409241 -0.705445 -12.137291 0.223238 -8.532900 123.723865 -37.672035 -70.992751 -3.685215 2.871580 0.335160 -0.048990 0.144460 0.151880 12.958979 6.675799 4.904303 6.988396 -5.178056 -7.845627 -142.631376 72.215348 -140.997326 2.184354 -1.923266 -0.092770 0.283500 -0.110460 -0.097380 
